<svg viewBox="0 0 48 48" fill="none" xmlns="http://www.w3.org/2000/svg">
<path d="M4.8 24C4.8 34.5968 13.4032 43.2 24 43.2C34.5968 43.2 43.2 34.5968 43.2 24C43.2 13.4032 34.5968 4.8 24 4.8C13.4032 4.8 4.8 13.4032 4.8 24V24" stroke="white" stroke-width="0.96"/>
<path d="M24 9.6L26.4 24L24 38.4L21.6 24L24 9.6Z" fill="white"/>
<path d="M24 9.6L26.4 24H24H21.6L24 9.6Z" fill="#39FF88"/>
<path d="M23.04 24C23.04 24.5298 23.4702 24.96 24 24.96C24.5298 24.96 24.96 24.5298 24.96 24C24.96 23.4702 24.5298 23.04 24 23.04C23.4702 23.04 23.04 23.4702 23.04 24Z" fill="black"/>
</svg>
